<?xml version="1.0" standalone="no"?>
<!DOCTYPE svg PUBLIC "-//W3C//DTD SVG 20010904//EN"
 "http://www.w3.org/TR/2001/REC-SVG-20010904/DTD/svg10.dtd">
<svg version="1.0" xmlns="http://www.w3.org/2000/svg"
 width="123.000000pt" height="123.000000pt" viewBox="0 0 123.000000 123.000000"
 preserveAspectRatio="xMidYMid meet">
<metadata>
Created by potrace 1.14, written by Peter Selinger 2001-2017
</metadata>
<g transform="translate(0.000000,123.000000) scale(0.100000,-0.100000)"
fill="#000000" stroke="none">
<path d="M634 1112 c-12 -2 -30 -12 -40 -23 -10 -12 -30 -19 -51 -19 -19 0
-43 -5 -55 -11 -31 -16 -58 -86 -58 -151 0 -49 4 -62 34 -101 37 -49 34 -57
-23 -57 -46 0 -234 -41 -258 -56 -11 -7 -27 -30 -33 -51 -7 -21 -23 -57 -36
-81 -16 -28 -24 -59 -24 -92 0 -43 3 -49 23 -52 19 -3 23 -10 28 -64 4 -39 13
-72 27 -92 15 -20 22 -45 22 -76 0 -50 16 -62 26 -20 10 39 -2 104 -25 135
-12 16 -21 43 -21 61 0 55 -12 138 -20 138 -4 0 -11 -11 -14 -25 -4 -14 -13
-25 -21 -25 -17 0 -10 22 29 90 14 25 26 54 26 66 0 21 29 53 66 72 28 15 188
42 245 42 34 0 49 5 53 16 11 30 6 47 -29 85 -19 21 -37 50 -41 64 -9 38 4 91
32 124 30 36 53 44 85 33 19 -7 27 -4 43 16 38 48 130 11 162 -65 8 -18 20
-33 26 -33 24 0 89 -54 118 -98 25 -38 30 -55 30 -108 0 -51 5 -70 25 -100 14
-20 25 -43 25 -51 0 -16 70 -113 82 -113 4 0 8 -7 8 -15 0 -31 -36 -13 -96 49
-47 47 -72 65 -100 70 -35 7 -36 6 -30 -16 3 -13 9 -53 12 -90 6 -63 9 -68 30
-68 17 0 24 6 24 20 0 26 6 25 46 -5 18 -14 39 -25 48 -25 25 0 76 -50 76 -75
0 -14 -11 -34 -25 -47 -20 -19 -25 -34 -27 -83 -3 -51 0 -60 15 -63 14 -3 18
2 16 20 -3 31 10 79 28 100 25 29 28 93 6 131 -20 33 -20 34 -2 45 30 19 23
50 -22 100 -60 68 -109 173 -109 232 0 27 -9 68 -19 92 -18 44 -92 118 -117
118 -7 0 -23 19 -37 43 -42 70 -103 100 -183 89z m325 -597 l31 -35 -34 0
c-35 0 -46 12 -46 51 0 28 13 24 49 -16z"/>
<path d="M661 975 c0 -5 8 -26 19 -45 11 -19 19 -30 19 -25 0 6 -8 26 -19 45
-11 19 -19 31 -19 25z"/>
<path d="M825 770 c4 -6 11 -8 16 -5 14 9 11 15 -7 15 -8 0 -12 -5 -9 -10z"/>
<path d="M610 706 c0 -4 11 -21 25 -38 14 -16 25 -25 25 -19 0 12 -49 69 -50
57z"/>
<path d="M887 370 l-15 -30 44 0 c24 0 44 3 43 8 0 4 -13 17 -29 30 l-28 22
-15 -30z"/>
<path d="M1032 339 c2 -6 8 -10 13 -10 5 0 11 4 13 10 2 6 -4 11 -13 11 -9 0
-15 -5 -13 -11z"/>
<path d="M430 261 c0 -56 -3 -71 -15 -71 -8 0 -15 -7 -15 -15 0 -18 -12 -19
-28 -3 -9 9 -15 9 -23 1 -32 -32 55 -47 91 -16 16 14 20 30 20 80 l0 63 43 -6
c91 -12 87 -9 87 -71 0 -41 4 -59 18 -69 25 -19 42 -17 42 6 0 12 -7 20 -17
20 -15 0 -18 10 -18 66 l0 67 -30 3 c-16 1 -58 6 -92 9 l-63 7 0 -71z"/>
<path d="M660 156 c0 -10 9 -16 21 -16 24 0 21 23 -4 28 -10 2 -17 -3 -17 -12z"/>
<path d="M930 150 c0 -5 9 -10 20 -10 11 0 20 5 20 10 0 6 -9 10 -20 10 -11 0
-20 -4 -20 -10z"/>
</g>
</svg>
